<mxfile host="app.diagrams.net" modified="2023-09-15T00:01:21.627Z" agent="Mozilla/5.0 (X11; Ubuntu; Linux x86_64; rv:109.0) Gecko/20100101 Firefox/115.0" etag="8pDpNftBR9NN8QTuIh_i" version="21.7.5" type="github">
  <diagram id="R2lEEEUBdFMjLlhIrx00" name="Page-1">
    <mxGraphModel dx="675" dy="1223" grid="1" gridSize="10" guides="1" tooltips="1" connect="1" arrows="1" fold="1" page="1" pageScale="1" pageWidth="850" pageHeight="1100" math="0" shadow="0" extFonts="Permanent Marker^https://fonts.googleapis.com/css?family=Permanent+Marker">
      <root>
        <mxCell id="0" />
        <mxCell id="1" parent="0" />
        <mxCell id="icL3QpZpNAu-DkA_q4pU-2" value="&lt;div&gt;Sucursal&lt;/div&gt;" style="rounded=0;whiteSpace=wrap;html=1;" vertex="1" parent="1">
          <mxGeometry x="140" y="540" width="120" height="60" as="geometry" />
        </mxCell>
        <mxCell id="icL3QpZpNAu-DkA_q4pU-3" value="activos" style="ellipse;whiteSpace=wrap;html=1;" vertex="1" parent="1">
          <mxGeometry x="260" y="430" width="120" height="80" as="geometry" />
        </mxCell>
        <mxCell id="icL3QpZpNAu-DkA_q4pU-4" value="ciudad" style="ellipse;whiteSpace=wrap;html=1;" vertex="1" parent="1">
          <mxGeometry x="130" y="370" width="120" height="80" as="geometry" />
        </mxCell>
        <mxCell id="icL3QpZpNAu-DkA_q4pU-5" value="nombre" style="ellipse;whiteSpace=wrap;html=1;" vertex="1" parent="1">
          <mxGeometry x="10" y="410" width="120" height="80" as="geometry" />
        </mxCell>
        <mxCell id="icL3QpZpNAu-DkA_q4pU-6" value="" style="endArrow=none;html=1;rounded=0;" edge="1" parent="1" source="icL3QpZpNAu-DkA_q4pU-2" target="icL3QpZpNAu-DkA_q4pU-5">
          <mxGeometry width="50" height="50" relative="1" as="geometry">
            <mxPoint x="240" y="510" as="sourcePoint" />
            <mxPoint x="230" y="550" as="targetPoint" />
          </mxGeometry>
        </mxCell>
        <mxCell id="icL3QpZpNAu-DkA_q4pU-7" value="" style="endArrow=none;html=1;rounded=0;" edge="1" parent="1" source="icL3QpZpNAu-DkA_q4pU-2" target="icL3QpZpNAu-DkA_q4pU-4">
          <mxGeometry width="50" height="50" relative="1" as="geometry">
            <mxPoint x="180" y="600" as="sourcePoint" />
            <mxPoint x="230" y="550" as="targetPoint" />
          </mxGeometry>
        </mxCell>
        <mxCell id="icL3QpZpNAu-DkA_q4pU-8" value="" style="endArrow=none;html=1;rounded=0;" edge="1" parent="1" source="icL3QpZpNAu-DkA_q4pU-2" target="icL3QpZpNAu-DkA_q4pU-3">
          <mxGeometry width="50" height="50" relative="1" as="geometry">
            <mxPoint x="210" y="560" as="sourcePoint" />
            <mxPoint x="260" y="510" as="targetPoint" />
          </mxGeometry>
        </mxCell>
        <mxCell id="icL3QpZpNAu-DkA_q4pU-9" value="&lt;div&gt;Cuenta&lt;/div&gt;" style="rounded=0;whiteSpace=wrap;html=1;" vertex="1" parent="1">
          <mxGeometry x="470" y="540" width="120" height="60" as="geometry" />
        </mxCell>
        <mxCell id="icL3QpZpNAu-DkA_q4pU-10" value="&lt;div&gt;saldo&lt;/div&gt;" style="ellipse;whiteSpace=wrap;html=1;" vertex="1" parent="1">
          <mxGeometry x="500" y="420" width="120" height="80" as="geometry" />
        </mxCell>
        <mxCell id="icL3QpZpNAu-DkA_q4pU-11" value="" style="endArrow=none;html=1;" edge="1" parent="1" source="icL3QpZpNAu-DkA_q4pU-9" target="icL3QpZpNAu-DkA_q4pU-10">
          <mxGeometry width="50" height="50" relative="1" as="geometry">
            <mxPoint x="490.0009090909091" y="540" as="sourcePoint" />
            <mxPoint x="540.91" y="460" as="targetPoint" />
          </mxGeometry>
        </mxCell>
        <mxCell id="icL3QpZpNAu-DkA_q4pU-12" value="nom_sucursal" style="ellipse;whiteSpace=wrap;html=1;" vertex="1" parent="1">
          <mxGeometry x="550" y="630" width="120" height="80" as="geometry" />
        </mxCell>
        <mxCell id="icL3QpZpNAu-DkA_q4pU-13" value="num_cuenta" style="ellipse;whiteSpace=wrap;html=1;" vertex="1" parent="1">
          <mxGeometry x="365" y="620" width="120" height="80" as="geometry" />
        </mxCell>
        <mxCell id="icL3QpZpNAu-DkA_q4pU-14" value="" style="endArrow=none;html=1;rounded=0;" edge="1" parent="1" source="icL3QpZpNAu-DkA_q4pU-13" target="icL3QpZpNAu-DkA_q4pU-9">
          <mxGeometry width="50" height="50" relative="1" as="geometry">
            <mxPoint x="460" y="600" as="sourcePoint" />
            <mxPoint x="510" y="550" as="targetPoint" />
          </mxGeometry>
        </mxCell>
        <mxCell id="icL3QpZpNAu-DkA_q4pU-15" value="" style="endArrow=none;html=1;rounded=0;" edge="1" parent="1" source="icL3QpZpNAu-DkA_q4pU-12" target="icL3QpZpNAu-DkA_q4pU-9">
          <mxGeometry width="50" height="50" relative="1" as="geometry">
            <mxPoint x="460" y="600" as="sourcePoint" />
            <mxPoint x="510" y="550" as="targetPoint" />
          </mxGeometry>
        </mxCell>
        <mxCell id="icL3QpZpNAu-DkA_q4pU-16" value="&lt;div&gt;Entity&lt;/div&gt;" style="rounded=0;whiteSpace=wrap;html=1;" vertex="1" parent="1">
          <mxGeometry x="290" y="540" width="120" height="60" as="geometry" />
        </mxCell>
      </root>
    </mxGraphModel>
  </diagram>
</mxfile>
